# xmcd CD database file
#
# Track frame offsets:
#	150
#	14627
#	36923
#	54474
#	84360
#	99395
#	117327
#	143431
#	153692
#	177637
#	191635
#
# Disc length: 2981 seconds
#
# Revision: 0
# Processed by: cddbd v1.5.1PL2 Copyright (c) Steve Scherf et al.
# Submitted via: CDex 1.51
#
DISCID=920ba30b
DTITLE=Patrick Saussois, Bucky Pizzarelli, Jerry Bruno - Swingin' American Songs
DYEAR=2005
DGENRE=Jazz
TTITLE0=Taking a Chance on Love
TTITLE1=East of the Sun
TTITLE2=Pennies from Heaven
TTITLE3=Tenderly
TTITLE4=Struttin' With Some Barbecue
TTITLE5=Indian Summer
TTITLE6=When I Grow Too Old to Dream
TTITLE7=The More I See You
TTITLE8=If I Had You
TTITLE9=But not for Me
TTITLE10=Body and Soul
EXTD=YEAR: 2005
EXTT0=
EXTT1=
EXTT2=
EXTT3=
EXTT4=
EXTT5=
EXTT6=
EXTT7=
EXTT8=
EXTT9=
EXTT10=
PLAYORDER=
